HIERARCHY
ROOT Hips
{
	OFFSET -0.001795 -0.223333 0.028219
	CHANNELS 6 Xposition Yposition Zposition Zrotation Yrotation Xrotation 
	JOINT LeftUpLeg
	{
		OFFSET 0.069520 -0.091406 -0.006815
		CHANNELS 3 Zrotation Yrotation Xrotation
		JOINT LeftLeg
		{
			OFFSET 0.034277 -0.375199 -0.004496
			CHANNELS 3 Zrotation Yrotation Xrotation
			JOINT LeftFoot
			{
				OFFSET -0.013596 -0.397961 -0.043693
				CHANNELS 3 Zrotation Yrotation Xrotation
				JOINT LeftToe
				{
					OFFSET 0.026358 -0.055791 0.119288
					CHANNELS 3 Zrotation Yrotation Xrotation
					End Site
					{
						OFFSET 0.000000 0.000000 0.000000
					}
				}
			}
		}
	}
	JOINT RightUpLeg
	{
		OFFSET -0.067670 -0.090522 -0.004320
		CHANNELS 3 Zrotation Yrotation Xrotation
		JOINT RightLeg
		{
			OFFSET -0.038290 -0.382569 -0.008850
			CHANNELS 3 Zrotation Yrotation Xrotation
			JOINT RightFoot
			{
				OFFSET 0.015774 -0.398415 -0.042312
				CHANNELS 3 Zrotation Yrotation Xrotation
				JOINT RightToe
				{
					OFFSET -0.025372 -0.048144 0.123348
					CHANNELS 3 Zrotation Yrotation Xrotation
					End Site
					{
						OFFSET 0.000000 0.000000 0.000000
					}
				}
			}
		}
	}
	JOINT Spine
	{
		OFFSET -0.002533 0.108963 -0.026696
		CHANNELS 3 Zrotation Yrotation Xrotation
		JOINT Spine1
		{
			OFFSET 0.005487 0.135180 0.001092
			CHANNELS 3 Zrotation Yrotation Xrotation
			JOINT Spine2
			{
				OFFSET 0.001457 0.052922 0.025425
				CHANNELS 3 Zrotation Yrotation Xrotation
				JOINT Neck
				{
					OFFSET -0.002778 0.213870 -0.042857
					CHANNELS 3 Zrotation Yrotation Xrotation
					JOINT Head
					{
						OFFSET 0.005152 0.064970 0.051349
						CHANNELS 3 Zrotation Yrotation Xrotation
						End Site
						{
							OFFSET 0.000000 0.000000 0.000000
						}
					}
				}
				JOINT LeftShoulder
				{
					OFFSET 0.078845 0.121749 -0.034090
					CHANNELS 3 Zrotation Yrotation Xrotation
					JOINT LeftArm
					{
						OFFSET 0.090977 0.030469 -0.008868
						CHANNELS 3 Zrotation Yrotation Xrotation
						JOINT LeftForeArm
						{
							OFFSET 0.259612 -0.012772 -0.027456
							CHANNELS 3 Zrotation Yrotation Xrotation
							JOINT LeftHand
							{
								OFFSET 0.249234 0.008986 -0.001171
								CHANNELS 3 Zrotation Yrotation Xrotation
								End Site
								{
									OFFSET 0.000000 0.000000 0.000000
								}
							}
						}
					}
				}
				JOINT RightShoulder
				{
					OFFSET -0.081759 0.118833 -0.038615
					CHANNELS 3 Zrotation Yrotation Xrotation
					JOINT RightArm
					{
						OFFSET -0.096012 0.032551 -0.009143
						CHANNELS 3 Zrotation Yrotation Xrotation
						JOINT RightForeArm
						{
							OFFSET -0.253742 -0.013329 -0.021401
							CHANNELS 3 Zrotation Yrotation Xrotation
							JOINT RightHand
							{
								OFFSET -0.255298 0.007772 -0.005559
								CHANNELS 3 Zrotation Yrotation Xrotation
								End Site
								{
									OFFSET 0.000000 0.000000 0.000000
								}
							}
						}
					}
				}
			}
		}
	}
}
MOTION
Frames: 11
Frame Time: 0.050000
0.000000 0.961957 0.000000 7.049542 26.797426 13.359552 6.737112 -0.759580 -4.924802 -6.468140 0.224495 3.442045 5.603935 17.355011 20.357402 0.000000 0.000000 0.000000 -8.941019 -1.141085 -21.558965 3.863857 -0.867280 6.532647 -4.230869 -10.468741 42.125151 0.000000 0.000000 0.000000 15.021495 -7.377011 24.940625 -1.318573 1.410995 -20.706595 1.302334 -1.897032 23.378037 19.656394 -8.442116 -24.446102 0.000000 0.000000 0.000000 -13.588497 -30.526103 11.652279 -48.118484 -33.022299 5.631597 -10.286396 -49.223456 5.939439 0.000000 0.000000 0.000000 24.756452 17.486867 14.131265 38.179752 42.271813 6.522259 -13.617295 17.877477 -0.889219 0.000000 0.000000 0.000000 
-0.001941 0.961952 0.003521 8.313152 27.543587 15.169061 5.750815 -0.766531 -6.056327 -5.398859 0.162024 1.649467 5.382399 17.935103 23.860818 0.000000 0.000000 0.000000 -10.719973 -1.741385 -22.059298 6.437372 -1.405117 5.156981 -8.501317 -14.934630 43.868817 0.000000 0.000000 0.000000 15.211191 -7.084945 23.496802 -0.325515 1.183203 -19.417639 1.036376 -0.924044 22.070902 22.649827 -10.968862 -22.029084 0.000000 0.000000 0.000000 -14.360992 -31.711903 12.011728 -45.365627 -33.676870 5.573693 -8.952110 -50.391320 5.260620 0.000000 0.000000 0.000000 27.553691 15.682278 14.295028 38.330901 40.862358 5.824357 -17.583907 19.922033 -1.425446 0.000000 0.000000 0.000000 
-0.003089 0.961498 0.006568 7.448095 24.979991 14.378340 5.627467 -0.677429 -5.004526 -4.715463 0.174775 1.971539 5.043546 17.236915 23.338401 0.000000 0.000000 0.000000 -9.607165 -1.270527 -22.587679 6.568191 -1.472404 6.616163 -8.424016 -15.270969 40.488934 0.000000 0.000000 0.000000 14.774322 -7.006985 24.491687 -1.292314 1.381095 -19.792023 2.452662 -0.908739 21.398667 21.860716 -10.571459 -22.055614 0.000000 0.000000 0.000000 -13.314743 -30.450774 11.610628 -45.028701 -35.841128 6.286637 -7.410074 -48.717448 4.573446 0.000000 0.000000 0.000000 27.585559 14.804511 13.033563 38.761366 38.967158 5.462633 -16.220063 22.271497 -1.468237 0.000000 0.000000 0.000000 
-0.003761 0.962730 0.008937 7.893762 25.076210 14.431942 5.008077 -0.626844 -4.805493 -3.477398 0.089819 3.010006 5.222066 17.436499 23.284787 0.000000 0.000000 0.000000 -9.947979 -1.274721 -21.679024 7.228361 -1.610797 6.207227 -9.537816 -16.510205 37.772245 0.000000 0.000000 0.000000 15.014607 -7.187241 24.793326 -0.958753 1.298328 -19.608382 2.140446 -1.965142 20.509306 21.414077 -10.366758 -21.902747 0.000000 0.000000 0.000000 -12.790416 -30.827706 11.993486 -44.815799 -35.684042 6.268353 -4.689262 -49.948936 3.543616 0.000000 0.000000 0.000000 27.254812 14.979707 12.549151 40.187176 38.614855 5.984602 -17.470491 22.574708 -1.680510 0.000000 0.000000 0.000000 
-0.003882 0.962773 0.010920 7.939529 24.124082 14.063995 4.708086 -0.551084 -3.930633 -4.072188 0.135574 3.241699 5.953358 18.108426 23.471729 0.000000 0.000000 0.000000 -9.765373 -1.074784 -21.024471 6.937495 -1.525385 6.374039 -8.659570 -15.717446 34.601387 0.000000 0.000000 0.000000 14.433976 -7.217505 25.866554 0.222777 1.004464 -21.345391 1.643911 -2.487726 21.266800 20.532937 -9.920870 -22.025953 0.000000 0.000000 0.000000 -12.659583 -31.425167 12.483027 -43.532812 -36.865302 6.406724 -3.128121 -49.518526 2.943560 0.000000 0.000000 0.000000 26.874312 15.214049 12.209171 40.381651 37.987331 5.890365 -17.275959 23.074654 -1.737287 0.000000 0.000000 0.000000 
-0.003625 0.963275 0.012555 7.997124 23.208766 14.136450 4.888801 -0.552036 -3.802405 -4.132338 0.142797 3.711804 5.501624 17.621582 24.007097 0.000000 0.000000 0.000000 -9.567133 -0.949018 -21.081788 6.691981 -1.450535 6.545896 -8.529566 -15.778975 33.159537 0.000000 0.000000 0.000000 13.927598 -6.977266 25.949272 0.482851 0.923606 -21.621271 1.637978 -3.052786 21.286706 20.472163 -10.079745 -21.835163 0.000000 0.000000 0.000000 -10.853577 -30.943739 12.190893 -44.518610 -39.475806 7.539799 -0.438833 -48.061366 1.813052 0.000000 0.000000 0.000000 26.586646 14.798131 11.481514 41.143915 37.466480 5.981273 -16.905019 24.435919 -1.799982 0.000000 0.000000 0.000000 
-0.003159 0.963206 0.014216 8.167333 23.045606 14.043684 4.633255 -0.532538 -3.796224 -4.163504 0.146581 3.743515 5.586013 17.795733 24.631541 0.000000 0.000000 0.000000 -9.419141 -0.842351 -20.399754 6.429314 -1.366015 6.243683 -8.765186 -16.165470 31.241815 0.000000 0.000000 0.000000 13.771080 -6.908385 25.967300 1.034173 0.790816 -21.822739 1.316448 -3.858994 21.296216 19.909572 -9.818297 -21.819121 0.000000 0.000000 0.000000 -9.629237 -30.793874 12.079893 -44.834713 -41.351220 8.349753 1.764000 -47.496884 0.933834 0.000000 0.000000 0.000000 26.680239 15.012646 11.317712 40.391671 36.299658 5.413538 -16.024758 25.558347 -1.785980 0.000000 0.000000 0.000000 
-0.002642 0.963093 0.016102 8.007100 22.068049 13.886041 4.629172 -0.518046 -3.641259 -4.203118 0.159064 3.935156 5.178183 17.235239 24.433303 0.000000 0.000000 0.000000 -8.997821 -0.644756 -20.067486 6.276659 -1.298937 6.151878 -8.733687 -16.423138 29.184148 0.000000 0.000000 0.000000 13.419820 -6.679465 25.928661 1.076027 0.766758 -21.958602 1.453207 -3.878648 21.250671 19.933605 -10.189787 -20.917727 0.000000 0.000000 0.000000 -8.658464 -30.416743 11.837023 -45.601371 -42.558167 9.049900 3.131453 -47.384134 0.408285 0.000000 0.000000 0.000000 27.059690 14.784307 11.039178 39.478732 34.818288 4.679566 -14.881212 26.979194 -1.705793 0.000000 0.000000 0.000000 
-0.002071 0.962780 0.018306 8.030288 21.944237 13.600635 4.375985 -0.494961 -3.571981 -4.214516 0.155692 4.253761 5.177347 17.176893 24.149145 0.000000 0.000000 0.000000 -9.007056 -0.592080 -19.372471 6.217541 -1.273083 5.971170 -8.333134 -15.957970 28.085771 0.000000 0.000000 0.000000 13.472889 -6.571633 25.584403 1.505764 0.655095 -21.453185 0.863707 -4.255505 21.057907 19.135458 -9.721146 -20.822459 0.000000 0.000000 0.000000 -9.206865 -30.423681 11.984599 -45.366534 -43.082068 9.285778 2.802821 -47.512191 0.595070 0.000000 0.000000 0.000000 26.604144 15.031439 10.917260 39.059871 33.551348 4.251663 -13.864879 27.541614 -1.583331 0.000000 0.000000 0.000000 
-0.001464 0.962497 0.020558 7.897341 21.146292 13.179971 4.252711 -0.449392 -2.990616 -4.400196 0.171750 4.815613 5.456738 17.235672 23.288485 0.000000 0.000000 0.000000 -8.795142 -0.471444 -19.033787 6.385978 -1.305608 6.212230 -8.546571 -16.497804 27.059678 0.000000 0.000000 0.000000 13.553066 -6.611803 25.914486 1.148027 0.734109 -22.097947 0.960083 -4.247250 21.680833 19.037492 -9.702670 -20.992697 0.000000 0.000000 0.000000 -9.047216 -30.430313 12.030788 -46.791570 -43.581194 9.915328 1.919432 -48.568178 1.096747 0.000000 0.000000 0.000000 26.290248 14.848577 10.575602 38.700322 32.263238 3.745413 -12.785661 28.480013 -1.433304 0.000000 0.000000 0.000000 
-0.000965 0.961647 0.022467 7.922051 20.812825 13.147617 4.071564 -0.423494 -2.759732 -4.739983 0.200079 5.127007 5.442621 17.115356 22.910010 0.000000 0.000000 0.000000 -8.745784 -0.444839 -19.084525 6.385744 -1.329296 6.727009 -8.496907 -16.571768 25.856242 0.000000 0.000000 0.000000 13.678650 -6.529124 25.579460 1.031116 0.747918 -21.736986 0.480044 -4.787599 21.768370 18.443797 -9.486948 -20.651794 0.000000 0.000000 0.000000 -9.198911 -30.463089 12.184343 -47.893770 -43.726095 10.402327 0.638004 -48.741830 1.767212 0.000000 0.000000 0.000000 26.121562 14.717827 10.212381 38.822075 31.593120 3.602409 -12.104132 28.526683 -1.305920 0.000000 0.000000 0.000000 
